<?xml version="1.0" encoding="UTF-8"?>
<svg id="Layer_1" xmlns="http://www.w3.org/2000/svg" version="1.1" viewBox="0 0 156.72 27.5">
  <!-- Generator: Adobe Illustrator 30.0.0, SVG Export Plug-In . SVG Version: 2.1.1 Build 123)  -->
  <defs>
    <style>
      .st0, .st1 {
        fill: #231f20;
      }

      .st1 {
        fill-rule: evenodd;
      }
    </style>
  </defs>
  <g>
    <path class="st0" d="M19.47,4.53h6.97c2.93,0,5.25,2.43,5.25,5.36v9.37c0,2.88-2.3,5.22-5.17,5.25h-7.04l1.72-2.43,5.04-1.61c.9-.29,1.5-1.21,1.5-2.11v-7.65c0-.9-.61-1.82-1.5-2.11l-5.04-1.61-1.72-2.43h0v-.03ZM3.96,18.35c0,.9.61,1.82,1.5,2.11l5.04,1.5,1.72,2.43h-6.97C2.37,24.39,0,22.1,0,19.22v-9.37C0,6.93,2.32,4.5,5.25,4.5h6.97l-1.72,2.43-5.04,1.61c-.9.32-1.5,1.21-1.5,2.11v7.65h0s0,.05,0,.05Z"/>
    <path class="st0" d="M21.19,13.21h-10.58v2.43h10.58s0-2.43,0-2.43Z"/>
  </g>
  <path class="st1" d="M119.33,18.04c-.05,1.63-1.43,2.89-3.06,2.84-1.56-.05-2.8-1.29-2.84-2.84v-7.1c.07-1.63,1.43-2.89,3.06-2.84,1.53.07,2.77,1.29,2.84,2.84v.12h2.26v-.07c-.1-2.87-2.5-5.13-5.37-5.03-2.75.1-4.96,2.29-5.03,5.03v7.08c0,2.87,2.33,5.2,5.2,5.2s5.2-2.33,5.2-5.2v-.1h-2.26v.1h0v-.02ZM131.07,10.38c-2.38-.02-4.38,1.85-4.5,4.23v4.38c.24,2.48,2.46,4.28,4.91,4.04.95-.1,1.87-.49,2.58-1.14.83-.75,1.34-1.77,1.46-2.89v-4.38c-.12-2.36-2.09-4.23-4.45-4.23ZM133.28,18.72c0,1.22-1.05,2.19-2.26,2.16-1.19,0-2.14-.97-2.16-2.16v-3.87c0-1.22,1.05-2.19,2.26-2.16,1.19,0,2.14.97,2.16,2.16v3.87ZM124.94,5.76h-2.26v17.14h2.26V5.76ZM62.87,10.38h-2.26v12.55h2.26v-12.55ZM58.37,5.76h-2.26v17.14h2.26V5.76h0ZM50.44,5.76h-2.77l-4.55,17.12h2.24l1.22-4.55h5.01l1.22,4.5h2.24l-4.57-17.07s-.02,0-.02,0ZM50.93,16.12h-3.77l1.9-7.1,1.9,7.1h-.02ZM143.86,18.94c0,1.22-1.05,2.19-2.29,2.16-1.19-.02-2.14-.97-2.16-2.16v-8.56h-2.26v8.95c0,1.24.58,2.41,1.58,3.14s2.29.95,3.45.58c.22-.07.41-.15.63-.24.34-.17.66-.41.92-.68l.1-.1v.92h2.26v-12.55h-2.26v8.58h0v-.05h.02ZM62.87,5.76h-2.26v2.26h2.26v-2.26ZM70.19,10.35c-1.02,0-1.99.39-2.7,1.12l-.1.1v-5.79h-2.26v17.14h2.26v-.92l.1.1c1.53,1.51,3.99,1.46,5.5-.07.71-.73,1.09-1.7,1.09-2.7v-5.08c0-2.14-1.75-3.89-3.89-3.89ZM71.84,14.66v4.26c0,1.24-1,2.24-2.24,2.24s-2.24-1-2.24-2.24v-4.26c0-1.24,1-2.24,2.24-2.24s2.24,1,2.24,2.24ZM91.17,10.35c-1.02,0-1.99.39-2.72,1.12l-.1.1v-5.79h-2.26v17.14h2.26v-.92l.1.1c1.53,1.51,3.99,1.46,5.5-.07.71-.73,1.09-1.7,1.09-2.7v-5.08c0-2.14-1.73-3.87-3.87-3.89ZM92.82,14.66v4.26c0,1.24-1,2.24-2.24,2.24s-2.24-1-2.24-2.24h0v-4.26c0-1.24,1-2.24,2.24-2.24s2.24,1,2.24,2.24ZM154.44,5.76v5.79l-.1-.1c-1.12-1.09-2.77-1.41-4.21-.8s-2.38,2.02-2.38,3.57v5.08c0,2.14,1.77,3.87,3.91,3.87.24,0,.46,0,.71-.07.75-.15,1.43-.51,1.99-1.05l.1-.1v.92h2.26V5.73h-2.29v.02ZM154.44,14.66v4.26c0,1.22-1,2.21-2.24,2.24-1.24,0-2.21-1-2.24-2.21h0v-4.26c0-1.22,1-2.21,2.21-2.24h0c1.24,0,2.21,1,2.24,2.21h.02ZM84.48,14.61c0-.15,0-.29-.05-.44v-.05c-.12-.68-.36-1.31-.78-1.87-.78-1.09-1.99-1.8-3.36-1.87h-.27c-2.16,0-4.04,1.53-4.43,3.67h2.21c.19-1.05,1.12-1.8,2.16-1.8,1.19,0,2.16.95,2.19,2.14v1.05h-3.19c-2.14,0-3.89,1.7-3.89,3.84,0,1.77,1.19,3.33,2.89,3.77h.07l.22.05.27.05h.63c.46,0,.92-.05,1.36-.19.58-.17,1.09-.51,1.53-.92l.1-.1v.92h2.26v-8.27h.05v.02ZM79.45,17.11h2.77v1.58c0,1.22-.85,2.24-2.04,2.46-.17.05-.34.05-.51.05-.41,0-.8-.12-1.14-.32-.1-.05-.19-.12-.29-.19-.12-.1-.24-.22-.34-.34h0c-.68-.9-.51-2.16.36-2.84.36-.27.8-.41,1.24-.41h-.02l-.02.02ZM105.49,14.63c0-.15,0-.29-.05-.44v-.05c-.12-.68-.36-1.31-.78-1.87-.78-1.09-1.99-1.8-3.36-1.87h-.27c-2.16,0-4.01,1.53-4.43,3.65h2.21c.24-1.19,1.39-1.99,2.6-1.75,1.02.19,1.75,1.07,1.8,2.09v1.05h-3.21c-2.14,0-3.87,1.73-3.87,3.87,0,1.77,1.19,3.31,2.89,3.74h.05l.22.05.27.05h.63c.46,0,.92-.05,1.36-.19.58-.19,1.09-.51,1.53-.92l.1-.1v.92h2.26v-8.27h0l.02.05ZM100.46,17.11h2.77v1.6c0,1.22-.85,2.24-2.04,2.46-.17.05-.34.05-.51.05-.41,0-.8-.12-1.14-.32-.1-.05-.19-.12-.29-.19-.12-.1-.24-.22-.34-.34h0c-.27-.36-.41-.8-.41-1.24,0-1.09.88-1.99,1.97-2.02h0Z"/>
</svg>