<?xml version='1.0' encoding='utf-8'?>
<svg xmlns="http://www.w3.org/2000/svg" id="Layer_1" viewBox="0 0 29.94 56.69">
  <defs>
    </defs>
  <path class="cls-1" d="M15.83,13.33V.1c0-.05-.04-.1-.1-.1h-1.53c-.05,0-.1.04-.1.1v13.23c0,.05-.04.09-.09.09-7.89.49-14.02,6.98-14.02,14.92s6.13,14.43,14.02,14.92c.05,0,.09.04.09.09v13.23c0,.05.04.1.1.1h1.53c.05,0,.1-.04.1-.1v-13.23c0-.05.04-.09.09-.09,7.89-.49,14.02-6.98,14.02-14.92s-6.13-14.43-14.02-14.92c-.05,0-.09-.04-.09-.09ZM15.83,15.25c0-.06.05-.1.1-.1,6.92.5,12.29,6.22,12.29,13.2s-5.37,12.7-12.29,13.2c-.06,0-.1-.04-.1-.1V15.25ZM1.72,28.35c0-6.97,5.37-12.7,12.29-13.2.06,0,.1.04.1.1v26.2c0,.06-.05.1-.1.1-6.92-.5-12.29-6.22-12.29-13.2Z"/>
</svg>