<?xml version="1.0" encoding="UTF-8"?>
<svg id="Layer_1" xmlns="http://www.w3.org/2000/svg" version="1.1" viewBox="0 0 162.98 27.5">
  <!-- Generator: Adobe Illustrator 30.0.0, SVG Export Plug-In . SVG Version: 2.1.1 Build 123)  -->
  <defs>
    <style>
      .st0, .st1 {
        fill: #231f20;
      }

      .st1 {
        fill-rule: evenodd;
      }
    </style>
  </defs>
  <path class="st0" d="M34.92,3.68c-.38-.18-.53.18-.76.35-.09.06-.15.15-.21.21-.56.59-1.18.97-2.03.91-1.21-.06-2.26.32-3.18,1.24-.21-1.15-.85-1.82-1.82-2.26-.53-.24-1.03-.47-1.41-.97-.26-.35-.32-.74-.44-1.15-.09-.24-.18-.47-.44-.5-.29-.06-.41.21-.53.41-.47.85-.65,1.76-.62,2.71.03,2.12.94,3.79,2.71,5,.21.15.26.26.18.47-.12.41-.26.82-.38,1.24-.09.26-.21.32-.47.21-.94-.41-1.82-1-2.56-1.74-1.26-1.21-2.41-2.56-3.82-3.62-.32-.24-.68-.47-1-.71-1.44-1.41.21-2.56.56-2.71.41-.15.15-.65-1.15-.62-1.29,0-2.47.44-3.94,1-.24.09-.44.15-.68.21-1.41-.26-2.82-.32-4.23-.15-2.76.32-5,1.62-6.62,3.85C.13,9.74-.34,12.8.22,16.01c.59,3.35,2.29,6.15,4.94,8.32,2.73,2.26,5.88,3.35,9.47,3.15,2.18-.12,4.62-.41,7.35-2.73.71.35,1.41.47,2.62.59.91.09,1.82-.06,2.5-.18,1.09-.24,1-1.24.62-1.41-3.18-1.47-2.47-.88-3.12-1.35,1.62-1.91,4.03-3.88,5-10.29.06-.5,0-.82,0-1.24,0-.26.06-.35.32-.38.79-.09,1.56-.32,2.26-.71,2.06-1.12,2.88-2.97,3.09-5.18.03-.35,0-.68-.35-.85h0s0-.06,0-.06ZM17.04,23.56c-3.06-2.41-4.56-3.21-5.18-3.18-.59,0-.47.71-.35,1.12.15.41.29.71.56,1.09.18.24.29.62-.18.88-1,.62-2.71-.21-2.79-.24-2-1.18-3.68-2.73-4.85-4.85-1.15-2.06-1.79-4.23-1.91-6.59,0-.56.15-.76.71-.88.74-.15,1.5-.15,2.23-.06,3.15.47,5.79,1.85,8.03,4.09,1.26,1.26,2.23,2.76,3.23,4.26,1.06,1.56,2.21,3.06,3.65,4.29.5.44.91.76,1.32,1-1.18.15-3.15.18-4.5-.91h.03v-.03ZM18.51,14.09c0-.24.21-.44.44-.44h.18c.18.06.29.24.29.41,0,.24-.21.44-.44.44h0c-.24,0-.44-.21-.44-.44h-.03v.03ZM23.07,16.45c-.29.12-.59.24-.88.24-.41,0-.82-.12-1.18-.38-.41-.32-.71-.53-.82-1.12-.03-.29-.03-.59,0-.85.09-.47,0-.79-.35-1.06-.26-.24-.62-.29-1-.29-.12,0-.26-.06-.38-.12-.15-.09-.29-.26-.18-.53.03-.09.24-.26.29-.32.53-.29,1.12-.21,1.68,0,.53.21.91.59,1.47,1.15.59.68.68.85,1,1.35.26.38.5.79.65,1.24.09.29,0,.53-.35.68h.06v.03Z"/>
  <path class="st1" d="M153.12,5.07h-2.94v17.79h2.94V5.07ZM52.86,9.85h1.69v2.6h-1.69c-1.04,0-2.08.26-2.76.99-.68.73-.94,1.82-.94,2.94s.23,2.21.94,2.94c.68.73,1.72.99,2.76.99s2.08-.26,2.76-.99.94-1.82.94-2.94V5.69h2.94v17.2h-2.94v-1.09h-.55s-.1.13-.18.18c-.73.68-1.87.91-2.97.91-1.74,0-3.49-.44-4.6-1.64-1.14-1.2-1.53-3.04-1.53-4.89s.42-3.67,1.53-4.89c1.14-1.2,2.89-1.61,4.6-1.61h0ZM97.68,22.42h-1.69v-2.6h1.69c1.04,0,2.08-.26,2.76-.99.68-.73.94-1.82.94-2.94s-.23-2.21-.94-2.94c-.68-.73-1.72-.99-2.76-.99s-2.08.26-2.76.99c-.68.73-.94,1.82-.94,2.94v10.69h-2.94V9.38h2.94v1.09h.55s.1-.13.18-.18h0c.73-.68,1.87-.91,2.97-.91,1.74,0,3.49.44,4.6,1.64,1.14,1.2,1.53,3.04,1.53,4.89s-.42,3.67-1.53,4.89-2.89,1.61-4.6,1.61h0ZM74.27,17.19v-1.04c0-1.9-.42-3.8-1.61-5.05-1.17-1.25-2.99-1.69-4.79-1.69s-3.62.44-4.79,1.69c-1.2,1.25-1.61,3.15-1.61,5.05s.44,3.8,1.61,5.05,2.99,1.69,4.79,1.69,3.62-.44,4.79-1.69c.6-.62,1.01-1.46,1.27-2.37h-2.91s-.18.23-.29.34c-.7.75-1.8,1.01-2.89,1.01s-2.16-.29-2.89-1.01c-.7-.73-.96-1.9-.96-3.02s.26-2.29.96-3.02c.7-.75,1.8-1.01,2.89-1.01s2.16.26,2.89,1.01c.49.52.75,1.22.88,1.98h-5.2v2.08s7.86,0,7.86,0ZM89.07,16.15v1.04h-7.86v-2.08h5.2c-.13-.75-.39-1.48-.88-1.98-.7-.75-1.8-1.01-2.89-1.01s-2.16.26-2.89,1.01c-.7.75-.96,1.9-.96,3.02s.26,2.29.96,3.02,1.8,1.01,2.89,1.01,2.16-.26,2.89-1.01c.1-.1.18-.23.29-.34h2.91c-.26.91-.65,1.72-1.27,2.37-1.17,1.25-2.99,1.69-4.79,1.69s-3.62-.44-4.79-1.69-1.61-3.15-1.61-5.05.42-3.8,1.61-5.05c1.2-1.25,2.99-1.69,4.79-1.69s3.62.44,4.79,1.69c1.2,1.25,1.61,3.15,1.61,5.05ZM117.01,21.87c-1.17.73-2.99.99-4.79.99s-3.59-.26-4.79-.99-1.61-1.87-1.61-2.97h3.46c0,.44.21.88.75,1.14.55.29,1.4.39,2.26.39s1.69-.1,2.26-.39.75-.73.75-1.14-.21-.88-.75-1.14c-.57-.29-1.48-.39-2.34-.39-1.64,0-3.28-.26-4.34-.99s-1.46-1.87-1.46-2.97.39-2.24,1.46-2.97,2.71-.99,4.34-.99,3.28.26,4.34.99,1.46,1.87,1.46,2.97h-2.99c0-.44-.18-.86-.68-1.14s-1.27-.39-2.06-.39-1.53.1-2.06.39-.68.73-.68,1.14.18.86.68,1.14,1.2.39,1.98.39c1.8,0,3.62.26,4.79.99,1.2.73,1.61,1.87,1.61,2.97s-.44,2.24-1.61,2.99h0v-.03ZM133.42,16.15v1.04h-7.86v-2.08h5.2c-.13-.75-.39-1.48-.88-1.98-.7-.75-1.8-1.01-2.89-1.01s-2.16.26-2.89,1.01c-.7.75-.96,1.9-.96,3.02s.26,2.29.96,3.02,1.8,1.01,2.89,1.01,2.16-.26,2.89-1.01c.1-.1.18-.23.29-.34h2.91c-.26.91-.65,1.72-1.27,2.37-1.17,1.25-2.99,1.69-4.79,1.69s-3.62-.44-4.79-1.69-1.61-3.15-1.61-5.05.42-3.8,1.61-5.05,2.99-1.69,4.79-1.69,3.62.44,4.79,1.69c1.2,1.25,1.61,3.15,1.61,5.05ZM148.2,17.19v-1.04c0-1.9-.42-3.8-1.61-5.05-1.17-1.25-2.99-1.69-4.79-1.69s-3.62.44-4.79,1.69c-1.2,1.25-1.61,3.15-1.61,5.05s.44,3.8,1.61,5.05,2.99,1.69,4.79,1.69,3.62-.44,4.79-1.69c.6-.62,1.01-1.46,1.27-2.37h-2.91s-.18.23-.26.34c-.7.75-1.8,1.01-2.89,1.01s-2.16-.29-2.89-1.01c-.7-.73-.96-1.9-.96-3.02s.26-2.29.96-3.02c.7-.75,1.8-1.01,2.89-1.01s2.16.26,2.89,1.01c.49.52.75,1.22.88,1.98h-5.2v2.08h7.86s-.03,0-.03,0ZM162.98,22.89l-4.84-7.13,4.84-5.75h-3.64l-4.84,5.72,4.84,7.13h3.64v.03Z"/>
</svg>