<?xml version="1.0" encoding="UTF-8"?>
<svg id="Layer_1" xmlns="http://www.w3.org/2000/svg" version="1.1" viewBox="0 0 87.78 27.5">
  <!-- Generator: Adobe Illustrator 30.0.0, SVG Export Plug-In . SVG Version: 2.1.1 Build 123)  -->
  <defs>
    <style>
      .st0 {
        fill: #231f20;
      }
    </style>
  </defs>
  <g>
    <path class="st0" d="M21.67,0c1.22,0,2.21.99,2.21,2.21s-.99,2.21-2.21,2.21h-1.96c-.14,0-.25-.11-.25-.25h0v-1.95c0-1.22.99-2.21,2.21-2.21Z"/>
    <path class="st0" d="M9.27,12.88l8.35-8.28c.16-.16.07-.48-.14-.48h-4.48s-.09,0-.14.07L3.86,13.11c-.14.14-.34,0-.34-.21V4.39c0-.14-.09-.28-.21-.28H.21C.09,4.12,0,4.23,0,4.39v18.35c0,.14.09.25.21.25h3.1s.21-.12.21-.25v-3.73s0-.16.07-.21l2.78-2.76s.16-.07.23-.02l7.45,5.5c1.17.81,2.55,1.31,3.98,1.47.12,0,.23-.12.23-.25v-3.52c0-.14-.07-.25-.18-.25-.83-.14-1.63-.46-2.32-.92l-6.46-4.67c-.14-.09-.16-.32-.02-.44,0,0,0-.07,0-.07Z"/>
  </g>
  <path class="st0" d="M54.87,21.89c0,.2.17.37.37.37h2.36c.2,0,.37-.17.37-.37h0V5.13c0-.2-.17-.37-.37-.37h-2.36c-.2,0-.37.17-.37.37h0v16.74h0v.02ZM84.68,21.89c0,.2.17.37.37.37h2.36c.2,0,.37-.17.37-.37V5.13c0-.2-.17-.37-.37-.37h-2.36c-.2,0-.37.17-.37.37v16.74h0v.02ZM75.35,4.76c-.17,0-.32.12-.35.27l-3.47,14.26c-.05.22-.32.22-.4,0l-3.47-14.26c-.05-.17-.2-.27-.35-.27h-5.9c-.2,0-.37.17-.37.37h0v16.74c0,.2.17.37.37.37h2.6c.2,0,.37-.15.37-.37V7.81c0-.27.32-.35.4-.07l3.47,14.23c.05.17.2.27.35.27h5.43c.17,0,.32-.12.35-.27l3.47-14.23c.07-.27.4-.22.4.07v14.08c0,.2.17.37.37.37h2.6c.2,0,.37-.17.37-.37V5.13c0-.2-.17-.37-.37-.37h-5.88ZM43.66,12.87l7.09-7.49c.15-.15.12-.37,0-.52-.07-.07-.15-.1-.25-.1h-3.3s-.2.05-.27.1l-8.13,8.21c-.12.12-.32,0-.32-.2v-7.76c0-.2-.17-.37-.37-.37h-2.43c-.2,0-.37.17-.37.37h0v16.74c0,.2.17.37.37.37h2.43c.2,0,.37-.17.37-.37h0v-3.35s.02-.15.07-.2l2.5-2.55s.15-.07.22-.02l6.72,5.08c.99.67,2.23,1.12,3.37,1.31.2.02.37-.1.4-.3v-3.07c0-.17-.12-.32-.3-.37-.67-.15-1.41-.42-1.96-.79l-5.8-4.34s-.12-.3-.02-.4h0l-.02.02Z"/>
</svg>