<?xml version="1.0" encoding="UTF-8"?>
<svg id="Layer_1" xmlns="http://www.w3.org/2000/svg" version="1.1" viewBox="0 0 99.95 27.5">
  <!-- Generator: Adobe Illustrator 30.0.0, SVG Export Plug-In . SVG Version: 2.1.1 Build 123)  -->
  <defs>
    <style>
      .st0, .st1 {
        fill: #231f20;
      }

      .st1 {
        fill-rule: evenodd;
      }
    </style>
  </defs>
  <path class="st0" d="M13.13,2.39c.45.77.89,1.57,1.34,2.36.05.07.11.11.18.11h6.32c.2,0,.36.11.5.36l1.66,2.91c.23.39.27.55.02.95-.3.48-.59.98-.86,1.48l-.41.75c-.11.23-.25.32-.05.59l3.02,5.27c.2.34.14.57-.05.89-.5.89-1,1.77-1.52,2.66-.18.32-.41.43-.77.43h-2.64s-.07,0-.09.05c-1.02,1.8-2.05,3.59-3.07,5.39-.18.34-.43.41-.82.41h-3.43c-.23,0-.41-.11-.52-.32l-1.52-2.64s-.05-.07-.09-.05h-5.82c-.32.05-.64,0-.91-.11l-1.82-3.16c-.11-.18-.11-.43,0-.61l1.36-2.41s.05-.16,0-.23c-.7-1.23-1.43-2.48-2.14-3.73l-.89-1.59c-.18-.36-.2-.57.11-1.09.52-.93,1.05-1.84,1.57-2.77.16-.27.34-.39.66-.39h2.93s.09,0,.11-.07l3.18-5.57c.09-.18.27-.27.48-.27h2.95c.39,0,.82,0,1.02.36h0l-.02.02ZM9.25,2.84h-.07l-3.25,5.7s-.09.09-.16.09h-3.25s-.07,0-.05.09l6.61,11.55s0,.07-.05.07h-3.18s-.18.07-.23.16l-1.5,2.61s-.02.14.07.14h6.5s.09,0,.11.07l1.59,2.8s.11.09.16,0l5.68-9.95.89-1.57s.05-.05.09,0h.02l1.61,2.89s.07.07.11.07h3.14s.02,0,.05-.05v-.05l-3.3-5.77s-.02-.09,0-.14l.34-.57,1.27-2.25s0-.07-.05-.07h-13.18s-.09,0-.05-.09l1.64-2.84s.02-.09,0-.14l-1.55-2.73s-.05-.05-.07-.05h.02v.02ZM16.38,11.95s.07,0,.05.07l-.95,1.66-2.98,5.2h-.14l-3.93-6.86s0-.07.02-.07h7.93Z"/>
  <path class="st1" d="M44.87,17.11h3.26l1.37,1.6c.84-.69,1.5-1.55,1.93-2.55.46-.99.69-2.09.69-3.21,0-1.83-.56-3.28-1.68-4.4s-2.6-1.68-4.43-1.68c-.92,0-1.78.18-2.6.51s-1.55.81-2.14,1.45c-.69.71-1.25,1.55-1.6,2.47-.38.92-.56,1.88-.56,2.88,0,1.81.56,3.26,1.65,4.4s2.49,1.73,4.2,1.73c.36,0,.71,0,1.09-.08s.79-.15,1.2-.25l-2.37-2.85h0l-.03-.03ZM50.83,24.19l-1.91-2.21c-.69.25-1.32.46-1.96.59-.61.13-1.25.2-1.86.2-2.67,0-4.79-.76-6.34-2.29-1.58-1.53-2.34-3.59-2.34-6.19,0-1.43.25-2.75.76-3.97.48-1.22,1.22-2.32,2.16-3.21.89-.87,1.96-1.53,3.11-1.99,1.17-.46,2.44-.69,3.79-.69,2.62,0,4.71.76,6.29,2.32,1.58,1.55,2.37,3.59,2.37,6.16,0,1.58-.31,3.05-.94,4.4-.61,1.32-1.55,2.49-2.72,3.39l2.9,3.46h-3.31v.03ZM55.99,11.01h2.6l1.83,5.78.05.15c.23.71.33,1.22.36,1.58.08-.28.2-.56.33-.87.15-.31.31-.64.53-.99l3.79-6.49,1.86,6.67c.08.25.13.51.18.76s.08.56.13.92c.13-.33.23-.64.36-.92s.25-.51.38-.71l3.44-5.91h2.9l-7.66,12.01-1.91-6.31c-.08-.23-.13-.48-.2-.71-.05-.28-.1-.59-.13-.87-.15.33-.31.64-.46.94-.13.28-.23.46-.31.59l-3.84,6.39-4.17-12.01s-.05,0-.05,0ZM77.88,15.31h5.83c0-.76-.25-1.37-.71-1.81-.43-.46-1.04-.66-1.81-.66-.87,0-1.58.23-2.19.66-.59.43-.97,1.04-1.15,1.81h.03ZM83.59,18.85l1.86,1.45c-.66.87-1.37,1.5-2.14,1.91s-1.65.59-2.67.59c-1.68,0-3.03-.51-4.07-1.53s-1.55-2.37-1.55-4.02c0-1.93.59-3.54,1.78-4.79s2.7-1.88,4.56-1.88c1.53,0,2.75.48,3.67,1.43.92.94,1.37,2.21,1.37,3.82v.53c0,.2,0,.46-.05.76h-8.63c0,1.02.25,1.86.76,2.47s1.2.92,2.06.92c.59,0,1.17-.15,1.71-.43.56-.31,1.02-.71,1.37-1.22,0,0-.03,0-.03,0ZM96.44,22.31l.87-6.49v-.97c0-.74-.18-1.3-.53-1.71s-.89-.59-1.55-.59c-1.07,0-1.91.36-2.49,1.04-.61.69-.99,1.73-1.17,3.16l-.71,5.55h-2.57l1.5-11.3h2.47l-.2,1.35c.66-.59,1.32-1.04,2.01-1.32.71-.28,1.48-.43,2.24-.43,1.17,0,2.06.31,2.7.92.66.61.97,1.45.97,2.55,0,.28,0,.61-.05.97,0,.36-.08.79-.15,1.3l-.79,5.96h-2.57.05v.03Z"/>
</svg>