<?xml version="1.0" encoding="UTF-8"?>
<svg id="Layer_1" xmlns="http://www.w3.org/2000/svg" version="1.1" viewBox="0 0 154.09 27.5">
  <!-- Generator: Adobe Illustrator 30.0.0, SVG Export Plug-In . SVG Version: 2.1.1 Build 123)  -->
  <defs>
    <style>
      .st0, .st1 {
        fill: #231f20;
      }

      .st1 {
        fill-rule: evenodd;
      }
    </style>
  </defs>
  <g>
    <path class="st0" d="M17.63,21.2l-2.15-.56v-10.29l2.3-.58c1.26-.33,2.33-.58,2.38-.58s.08,2.83.08,6.3v6.3h-.23c-.13,0-1.21-.28-2.38-.58h0Z"/>
    <path class="st0" d="M7.59,18.62c0-3.46.03-6.3.08-6.3s1.11.25,2.38.58l2.3.58v5.11l-.05,5.11-2.07.53c-1.14.28-2.2.56-2.35.58l-.3.08v-6.3h.03v.03Z"/>
    <path class="st0" d="M23.06,13.49c0-11.4,0-12.04.18-11.99.1,0,.99.25,2,.51,1.01.25,2,.51,2.2.56l.38.1v10.82l-.05,10.82-2.05.53c-1.11.28-2.17.56-2.35.58l-.3.08v-12.04h0v.03Z"/>
    <path class="st0" d="M0,13.54C0,7.62.03,2.79.08,2.79s1.11.25,2.38.58l2.3.58v9.58c0,5.26,0,9.58-.05,9.58-.03,0-1.11.28-2.38.58L0,24.29v-10.75H0Z"/>
  </g>
  <path class="st1" d="M69.57,7.44v2.88h.9c.7,0,.87,0,.9.49v1.1c0,.49-.2.49-.9.49h-.9v5.12c0,2.91.17,2.97,1.34,2.97.38,0,.47.15.49.87v1.57l-1.45-.17c-.81-.09-1.69-.29-1.95-.41-.7-.38-.99-1.74-1.02-5.32v-4.62h-3.02l-3.26,7.44-3.23,7.44h-2.47l.49-1.22c.29-.7.76-1.83,1.05-2.5l.55-1.28-4.88-11.63c-.12-.26.26-.35,1.28-.35h1.42l2.7,6.77c.76,1.86.96,2.18,1.13,1.86l1.89-4.71,1.57-3.81,4.83-.15v-2.85h2.62s-.09,0-.09,0ZM139.87,11.3c.32.23.23.41-.41,1.16l-.78.9-1.16-.64c-2.09-1.1-4.07-.41-5.03,1.69-.61,1.34-.52,2.91.17,4.27.93,1.77,3.43,2.35,5.17,1.16l.9-.64.67.7c.38.38.67.81.67.96,0,.64-3.58,2.12-4.68,1.92l-1.08-.2c-1.95-.41-3.55-1.72-4.27-3.49-.26-.58-.41-1.74-.41-2.91,0-1.69.12-2.06.87-3.31,1.86-3.11,6.11-3.84,9.3-1.63,0,0,.06.06.06.06ZM81.2,10.35c2.15.58,4.04,3.34,4.04,5.84v.93h-7.36c-3.05.06-2.91.26-2.12,1.57,1.28,2.18,4.65,2.41,6.8.47.61-.55,1.19-.41,1.92.44.29.35.23.52-.38,1.16-1.34,1.4-4.27,2.33-6.02,1.92-2.33-.55-3.72-1.54-4.65-3.31-.78-1.48-.76-4.54,0-6.11,1.4-2.67,4.48-3.84,7.76-2.94h0v.03ZM147.46,10.05c3.69,0,6.11,2.12,6.48,5.64l.15,1.42h-10v.67c0,.44.32.99.9,1.57,1.57,1.48,3.81,1.51,5.84.12l1.13-.78.78.52c.41.32.76.67.76.76s-.32.49-.7.9c-1.42,1.37-4.33,2.18-6.37,1.77-2.99-.61-4.97-3.08-4.97-6.34,0-3.55,2.59-6.22,5.99-6.25ZM112.57,10.99l.55.38c.52.32.61.26.61-.17v-.23c0-.49.09-.64.73-.64h1.37v12.01h-1.16c-.87,0-1.1-.06-1.16-.38v-.15c0-.67-.15-.67-1.25,0-1.42.9-3.78.93-5.47.15-2.47-1.19-3.72-3.49-3.43-6.45.17-2.01,1.13-3.69,2.62-4.54,2.04-1.19,4.8-1.19,6.6,0h0v.03ZM39.25,22.35V4.73l5.03.2c2.09.12,2.73.26,3.58.73,2.56,1.31,3.23,4.68,1.31,6.69-.38.38-.49.67-.32.73,1.34.44,2.67,2.59,2.7,4.27,0,1.4-.99,3.14-2.3,4.04l-1.16.78-8.84.15h0v.03ZM127.43,11.92c.7.96.93,2.21.96,5.79v4.65h-2.35v-4.88c-.15-4.22-.73-5.17-2.76-5.17-1.02,0-1.31.12-1.95.87l-.76.84v8.37h-2.35v-12.04h1.16c.76,0,1.08.09,1.16.29v.12c0,.23.09.38.23.32,2.94-1.51,5.06-1.22,6.66.87h0v-.03ZM90.19,4.82c8.49,0,12.07,2.88,11.77,9.45-.26,5.58-3.49,8.08-10.44,8.08h-3.11V4.82h1.77ZM107.6,12.76c-1.72,1.16-2.3,4.16-1.1,5.93,1.16,1.77,3.75,2.3,5.38,1.1,2.35-1.77,2.24-5.55-.23-6.98-1.08-.64-3.11-.64-4.04-.06h0ZM41.87,14.71v5.32l4.19-.15c1.37-.06,1.51-.2,2.09-.9.47-.52.76-1.13.76-1.63s-.29-1.1-.76-1.63l-.29-.32c-.52-.55-.87-.55-3.23-.61l-2.76-.12h0v.03ZM90.74,7.09v12.94l2.3-.12c1.66-.09,2.56-.26,3.34-.67,2.09-1.08,2.99-2.73,2.99-5.55,0-2.21-.44-3.4-1.69-4.56-1.1-1.1-2.09-1.51-4.33-1.77,0,0-2.62-.26-2.62-.26ZM78.18,12.26c-1.19.2-2.85,1.66-2.85,2.47v.17c.09.29.49.35,2.53.35h4.83l-.15-.58c-.49-1.63-2.47-2.73-4.33-2.44h0l-.03.03ZM146.44,12.38c-1.1.32-2.35,1.6-2.35,2.41,0,.41.17.49,2.5.49h4.8l-.26-.78c-.61-1.72-2.76-2.7-4.68-2.12ZM41.87,7.09v5.32h1.69c.93,0,2.09-.15,2.56-.35,1.16-.49,1.57-1.08,1.57-2.3,0-.81-.17-1.22-.67-1.74-.49-.47-.78-.61-1.92-.73l-3.26-.2s.03,0,.03,0Z"/>
</svg>