<?xml version="1.0" encoding="UTF-8"?>
<svg id="Layer_1" xmlns="http://www.w3.org/2000/svg" version="1.1" viewBox="0 0 104.33 27.5">
  <!-- Generator: Adobe Illustrator 30.0.0, SVG Export Plug-In . SVG Version: 2.1.1 Build 123)  -->
  <defs>
    <style>
      .st0 {
        fill: #231f20;
      }
    </style>
  </defs>
  <g>
    <path class="st0" d="M5.91,16.47c.54-1.7,1.28-3.31,2.18-4.86,3.46-5.99,8.49-9.54,11.24-7.95C13.12.07,5.01,2.49,1.23,9.04c-.46.78-.83,1.61-1.13,2.46-.28.81.11,1.68.83,2.09l4.97,2.87s.02,0,.02,0Z"/>
    <path class="st0" d="M20.26,12.53c-.54,1.7-1.28,3.31-2.18,4.86-3.46,5.99-8.49,9.54-11.24,7.95,6.21,3.59,14.31,1.18,18.1-5.38.46-.78.83-1.61,1.13-2.46.28-.81-.11-1.68-.85-2.09l-4.97-2.87h0Z"/>
    <path class="st0" d="M18.08,17.39c3.46-5.99,4.01-12.13,1.24-13.72s-7.8,1.96-11.24,7.95c2.26-3.92,6.32-5.79,9.08-4.2,2.77,1.59,3.16,6.05.91,9.97h0Z"/>
    <path class="st0" d="M8.09,11.61c-3.46,5.99-4.01,12.13-1.26,13.72,2.77,1.59,7.8-1.96,11.26-7.95-2.26,3.92-6.32,5.79-9.08,4.2s-3.16-6.05-.91-9.95h0v-.02Z"/>
  </g>
  <path class="st0" d="M101.41,10.7c-.47-2.01-1.24-2.71-3.26-2.91-.57-.07-1.14-.07-1.72-.02-2.69.22-3.56,1.17-3.56,3.85v4.13c0,1.82.85,3.06,2.64,3.38,1.19.22,2.54.15,3.71-.15,1.52-.37,2.19-1.72,2.01-3.38h-4.03v-2.56h7.09v1.37c0,.99.07,1.96-.07,2.91-.35,2.56-2.49,4.53-5.52,4.87-1.52.17-3.16.05-4.63-.35-2.74-.75-4.25-2.98-4.28-5.82v-4.92c0-3.53,1.47-5.4,4.95-6.09,2.36-.47,4.72-.4,6.91.8,1.89,1.04,2.74,2.69,2.66,4.92h-2.93l.02-.02ZM86.44,22.04h-2.76V7.91h-8.06v14.1h-2.83V5.33h13.68v16.71h-.02ZM62.87,19.48h-7.19V5.15h-2.74v16.81h9.95v-2.49s-.02,0-.02,0ZM68.19,22.01h-2.66V5.15h2.66v16.86ZM37.6,22.01h2.66v-8.01h.02l7.11,7.93h3.28l-7.11-7.93h-.1l7.11-8.75h-3.28l-7.04,8.68V5.15h-2.66s0,16.86,0,16.86Z"/>
</svg>