<?xml version="1.0" encoding="UTF-8"?>
<svg id="Layer_1" xmlns="http://www.w3.org/2000/svg" version="1.1" viewBox="0 0 111.19 68.03">
  <!-- Generator: Adobe Illustrator 30.0.0, SVG Export Plug-In . SVG Version: 2.1.1 Build 123)  -->
  <defs>
    <style>
      .st0 {
        fill: #fff;
      }
    </style>
  </defs>
  <path class="st0" d="M13.13,40.2h-1.44s-.06-.03-.06-.06v-2.11s-.07-.09-.1-.03c-.52.73-1.2,1.32-2.01,1.74-.87.45-1.89.67-3.03.67-1.83,0-3.37-.6-4.62-1.81S0,35.87,0,34.04s.63-3.34,1.87-4.56,2.79-1.81,4.62-1.81c1.14,0,2.14.22,3.01.69.81.42,1.48,1,2.02,1.74.03.04.1.03.1-.03v-2.13s.03-.06.06-.06h1.44s.06.03.06.06v12.23s-.03.06-.06.06v-.03h.01ZM6.65,29.04c-1.47,0-2.68.48-3.64,1.42-.96.96-1.42,2.13-1.42,3.54s.48,2.59,1.44,3.54,2.17,1.42,3.63,1.42,2.67-.46,3.63-1.41c.96-.94,1.42-2.13,1.42-3.55s-.48-2.61-1.42-3.55-2.16-1.42-3.63-1.42c0,0,0,.01,0,0h-.01Z"/>
  <path class="st0" d="M20.13,22.63c.21-.21.48-.31.79-.31s.58.1.81.31c.21.21.33.46.33.78s-.1.55-.33.76-.48.3-.81.3-.58-.1-.79-.3-.31-.45-.31-.76.1-.57.31-.78ZM21.66,40.2h-1.45s-.06-.03-.06-.06v-12.23s.03-.06.06-.06h1.45s.06.03.06.06v12.23s-.03.06-.06.06Z"/>
  <path class="st0" d="M34.07,27.65c1.14,0,2.13.22,3,.69.79.43,1.45,1.02,1.96,1.75.03.04.1.03.1-.03v-2.16s.03-.06.06-.06h1.45s.06.03.06.06v11.45c0,1.98-.64,3.51-1.92,4.6s-2.92,1.63-4.9,1.63c-1.06,0-2.08-.16-3.06-.48-.94-.31-1.74-.73-2.37-1.27-.03,0-.03-.06,0-.09l.73-.99s.06-.03.09,0c1.32.99,2.86,1.47,4.62,1.47,1.54,0,2.8-.42,3.78-1.24s1.47-2.02,1.47-3.57v-1.56s-.07-.09-.1-.03c-.51.73-1.17,1.32-1.96,1.74-.85.46-1.86.69-3,.69-1.84,0-3.37-.6-4.6-1.78s-1.84-2.7-1.84-4.54.61-3.34,1.84-4.53,2.77-1.78,4.6-1.78v.03s-.01,0-.01,0ZM37.85,30.45c-.94-.93-2.16-1.39-3.61-1.39s-2.65.46-3.6,1.41c-.94.94-1.41,2.1-1.41,3.49s.46,2.56,1.41,3.49c.94.94,2.14,1.41,3.61,1.41s2.65-.46,3.61-1.39c.94-.93,1.42-2.1,1.42-3.51s-.48-2.56-1.42-3.49c0,0-.02-.01-.02,0h0v-.02Z"/>
  <path class="st0" d="M53.08,27.65c1.74,0,3.19.58,4.33,1.77,1.15,1.18,1.74,2.7,1.75,4.53,0,.13,0,.33-.03.55,0,.03-.03.06-.06.06h-10.78s-.06.03-.06.06c.12,1.36.64,2.46,1.57,3.25.94.81,2.1,1.21,3.45,1.21,1.66,0,3.1-.57,4.35-1.72.03-.03.06,0,.09,0l.76.93s.02.06,0,.09c-1.42,1.33-3.18,1.99-5.29,1.99-1.92,0-3.48-.58-4.71-1.77-1.21-1.18-1.83-2.71-1.83-4.6s.61-3.39,1.84-4.59,2.76-1.8,4.6-1.8v.03h.02ZM53.05,28.97c-1.3,0-2.38.4-3.25,1.2s-1.36,1.8-1.51,3.04c0,.03.03.07.06.07h9.16s.06-.03.06-.06c-.12-1.24-.6-2.26-1.42-3.04-.84-.79-1.87-1.2-3.09-1.2h0Z"/>
  <path class="st0" d="M71.31,27.65c1.63,0,2.97.45,3.97,1.35s1.5,2.11,1.5,3.63v7.51s-.03.06-.06.06h-1.45s-.06-.03-.06-.06v-7.06c0-1.24-.36-2.23-1.09-2.95s-1.75-1.06-3.07-1.06c-1.23,0-2.26.39-3.1,1.15s-1.24,1.75-1.24,2.95v6.97s-.03.06-.06.06h-1.45s-.06-.03-.06-.06v-12.23s.03-.06.06-.06h1.44s.06.03.06.06v1.9s.07.07.1.03c.48-.7,1.11-1.24,1.87-1.6.82-.39,1.71-.58,2.65-.58h0Z"/>
  <path class="st0" d="M89.21,27.65c1.98,0,3.57.63,4.75,1.87.03.03.02.06,0,.09l-.94.93s-.06.03-.09,0c-1.06-.99-2.32-1.48-3.78-1.48s-2.62.46-3.58,1.41-1.44,2.13-1.44,3.57.48,2.61,1.44,3.55,2.14,1.41,3.58,1.41,2.73-.49,3.81-1.5h.09l.9.94s.03.06,0,.09c-1.2,1.24-2.79,1.87-4.75,1.87s-3.54-.6-4.78-1.81c-1.24-1.21-1.87-2.73-1.87-4.56s.63-3.34,1.87-4.56,2.85-1.81,4.78-1.81h.02-.01Z"/>
  <path class="st0" d="M100.45,45.49h-1.6s-.07-.04-.05-.09l4.9-7.93v-.06l-6.03-9.47s0-.09.05-.09h1.62s.05,0,.05.03l5.17,8.02s.07.03.1,0l4.84-8.02s.03-.03.05-.03h1.59s.07.04.05.09l-10.69,17.52s-.03.03-.05.03h0Z"/>
</svg>