<?xml version="1.0" encoding="UTF-8"?>
<svg id="Layer_1" xmlns="http://www.w3.org/2000/svg" version="1.1" viewBox="0 0 111.21 68.03">
  <!-- Generator: Adobe Illustrator 30.0.0, SVG Export Plug-In . SVG Version: 2.1.1 Build 123)  -->
  <defs>
    <style>
      .st0 {
        fill: #fff;
      }
    </style>
  </defs>
  <path class="st0" d="M6.7,27.65c1.83,0,3.37.6,4.63,1.81s1.87,2.73,1.87,4.56-.63,3.34-1.87,4.56c-1.26,1.21-2.8,1.81-4.63,1.81-1.14,0-2.14-.22-3.01-.67-.81-.42-1.48-.99-2.01-1.71-.03-.04-.1-.03-.1.03v2.1s-.03.06-.06.06H.06S0,40.17,0,40.14v-18.78s.03-.06.06-.06h1.45s.06.03.06.06v8.65s.07.09.1.03c.52-.72,1.2-1.29,2.01-1.71.87-.45,1.87-.67,3.01-.67h.01ZM6.52,29.04c-1.45,0-2.67.48-3.63,1.42s-1.44,2.13-1.44,3.55.48,2.61,1.44,3.55,2.16,1.41,3.63,1.41,2.68-.48,3.64-1.42,1.42-2.13,1.42-3.54-.48-2.59-1.42-3.54c-.96-.96-2.17-1.42-3.64-1.42,0,0,0-.01,0,0h0Z"/>
  <path class="st0" d="M31.15,40.2h-1.44s-.06-.03-.06-.06v-2.13s-.07-.09-.1-.03c-.52.73-1.2,1.32-2.01,1.74-.87.45-1.89.67-3.03.67-1.83,0-3.37-.6-4.62-1.81s-1.87-2.73-1.87-4.56.63-3.34,1.87-4.56,2.79-1.81,4.62-1.81c1.14,0,2.14.22,3.01.69.81.42,1.48,1,2.02,1.74.03.04.1.03.1-.03v-2.13s.03-.06.06-.06h1.44s.06.03.06.06v12.23s-.03.06-.06.06h.01ZM24.69,29.04c-1.47,0-2.68.48-3.64,1.42-.96.96-1.42,2.13-1.42,3.54s.48,2.59,1.44,3.54,2.17,1.42,3.63,1.42,2.67-.46,3.63-1.41c.96-.94,1.42-2.13,1.42-3.55s-.48-2.61-1.42-3.55c-.96-.94-2.16-1.42-3.63-1.42,0,0,0,.01,0,0h-.01Z"/>
  <path class="st0" d="M39.61,40.2h-1.45s-.06-.03-.06-.06v-18.78s.03-.06.06-.06h1.45s.06.03.06.06v18.78s-.03.06-.06.06Z"/>
  <path class="st0" d="M58.65,40.2h-1.44s-.06-.03-.06-.06v-2.13s-.07-.07-.1-.03c-.52.73-1.2,1.32-2.01,1.74-.87.45-1.89.67-3.03.67-1.83,0-3.37-.6-4.62-1.81s-1.87-2.73-1.87-4.56.63-3.34,1.87-4.56,2.79-1.81,4.62-1.81c1.14,0,2.14.22,3.01.69.81.42,1.48,1,2.02,1.74.03.04.1.03.1-.03v-2.13s.03-.06.06-.06h1.44s.06.03.06.06v12.23s-.03.06-.06.06h0ZM52.15,29.04c-1.47,0-2.68.48-3.64,1.42-.96.96-1.42,2.13-1.42,3.54s.48,2.59,1.44,3.54,2.17,1.42,3.63,1.42,2.67-.46,3.63-1.41c.96-.94,1.42-2.13,1.42-3.55s-.48-2.61-1.42-3.55c-.96-.94-2.16-1.42-3.63-1.42,0,0,0,.01,0,0h-.01Z"/>
  <path class="st0" d="M71.76,27.65c1.63,0,2.97.45,3.97,1.35s1.5,2.11,1.5,3.63v7.51s-.03.06-.06.06h-1.45s-.06-.03-.06-.06v-7.06c0-1.24-.36-2.23-1.09-2.95-.73-.72-1.75-1.06-3.07-1.06-1.23,0-2.26.39-3.1,1.15s-1.24,1.75-1.24,2.95v6.97s-.03.06-.06.06h-1.45s-.06-.03-.06-.06v-12.23s.03-.06.06-.06h1.44s.06.03.06.06v1.9s.07.07.1.03c.48-.7,1.11-1.24,1.87-1.6.82-.39,1.71-.58,2.65-.58h-.01Z"/>
  <path class="st0" d="M89.59,27.65c1.98,0,3.57.63,4.75,1.87.03.03,0,.06,0,.09l-.94.93s-.06.01-.07,0c-1.06-.99-2.32-1.48-3.78-1.48s-2.62.46-3.58,1.41-1.44,2.13-1.44,3.57.48,2.61,1.44,3.55,2.14,1.41,3.58,1.41,2.73-.49,3.81-1.5h.07l.9.94v.09c-1.2,1.24-2.79,1.87-4.75,1.87s-3.54-.6-4.78-1.81c-1.24-1.21-1.87-2.73-1.87-4.56s.63-3.34,1.87-4.56,2.85-1.81,4.78-1.81c0,0,0-.01,0,0h.01Z"/>
  <path class="st0" d="M105.13,27.65c1.74,0,3.19.58,4.33,1.77,1.15,1.18,1.74,2.7,1.75,4.53,0,.13,0,.33-.03.55,0,.03-.03.06-.06.06h-10.78s-.06.03-.06.07c.12,1.36.64,2.44,1.57,3.25.94.81,2.1,1.21,3.45,1.21,1.65,0,3.1-.57,4.35-1.71.03-.03.06,0,.09,0l.76.93s.01.06,0,.09c-1.42,1.33-3.18,1.99-5.29,1.99-1.92,0-3.48-.58-4.71-1.77s-1.83-2.71-1.83-4.6.61-3.39,1.84-4.59,2.76-1.8,4.6-1.8h0l.02.02ZM105.1,28.97c-1.3,0-2.38.4-3.25,1.2-.85.78-1.36,1.8-1.51,3.03,0,.03.03.07.06.07h9.16s.06-.03.06-.07c-.12-1.24-.6-2.26-1.42-3.04-.84-.79-1.87-1.2-3.09-1.2h-.01Z"/>
</svg>