<?xml version="1.0" encoding="UTF-8"?>
<svg id="Layer_1" xmlns="http://www.w3.org/2000/svg" version="1.1" viewBox="0 0 26.92 68.03">
  <!-- Generator: Adobe Illustrator 30.0.0, SVG Export Plug-In . SVG Version: 2.1.1 Build 123)  -->
  <defs>
    <style>
      .st0 {
        fill: #fff;
      }
    </style>
  </defs>
  <path class="st0" d="M14.24,20.51v-11.9s-.04-.09-.09-.09h-1.38s-.09.04-.09.09v11.9s-.03.07-.07.09C5.52,21.05,0,26.88,0,34.02s5.52,12.98,12.61,13.42c.04,0,.07.04.07.09v11.9s.04.09.09.09h1.38s.09-.04.09-.09v-11.9s.03-.07.07-.09c7.09-.45,12.61-6.28,12.61-13.42s-5.52-12.98-12.61-13.42c-.04,0-.07-.04-.07-.09h0ZM14.24,22.24s.04-.09.09-.09c6.22.45,11.05,5.59,11.05,11.87s-4.83,11.42-11.05,11.87c-.04,0-.09-.03-.09-.09v-23.57h0ZM1.54,34.02c0-6.27,4.83-11.42,11.05-11.87.04,0,.09.03.09.09v23.57s-.04.09-.09.09c-6.22-.45-11.05-5.59-11.05-11.87h0Z"/>
</svg>