<?xml version="1.0" encoding="UTF-8"?>
<svg id="Layer_1" data-name="Layer 1" xmlns="http://www.w3.org/2000/svg" viewBox="0 0 186.97 34.02">
  <defs>
    <style>
      .cls-1 {
        fill: #231f20;
      }
    </style>
  </defs>
  <g>
    <path class="cls-1" d="M4.47,12.76c1.22,0,2.25.4,3.09,1.21.84.81,1.25,1.82,1.25,3.04s-.42,2.23-1.25,3.04c-.84.81-1.87,1.21-3.09,1.21-.76,0-1.43-.15-2.01-.45-.54-.28-.99-.66-1.34-1.14-.02-.03-.07-.02-.07.02v1.4s-.02.04-.04.04H.04s-.04-.02-.04-.04v-12.53s.02-.04.04-.04h.97s.04.02.04.04v5.77s.05.06.07.02c.35-.48.8-.86,1.34-1.14.58-.3,1.25-.45,2.01-.45ZM4.35,13.69c-.97,0-1.78.32-2.42.95s-.96,1.42-.96,2.37.32,1.74.96,2.37c.64.63,1.44.94,2.42.94s1.79-.32,2.43-.95c.64-.63.95-1.42.95-2.36s-.32-1.73-.95-2.36c-.64-.64-1.45-.95-2.43-.95Z"/>
    <path class="cls-1" d="M20.79,21.13h-.96s-.04-.02-.04-.04v-1.42s-.05-.06-.07-.02c-.35.49-.8.88-1.34,1.16-.58.3-1.26.45-2.02.45-1.22,0-2.25-.4-3.08-1.21-.83-.81-1.25-1.82-1.25-3.04s.42-2.23,1.25-3.04,1.86-1.21,3.08-1.21c.76,0,1.43.15,2.01.46.54.28.99.67,1.35,1.16.02.03.07.02.07-.02v-1.42s.02-.04.04-.04h.96s.04.02.04.04v8.16s-.02.04-.04.04ZM16.47,13.69c-.98,0-1.79.32-2.43.95-.64.64-.95,1.42-.95,2.36s.32,1.73.96,2.36c.64.63,1.45.95,2.42.95s1.78-.31,2.42-.94c.64-.63.95-1.42.95-2.37s-.32-1.74-.95-2.37c-.64-.63-1.44-.95-2.42-.95Z"/>
    <path class="cls-1" d="M26.42,21.13h-.97s-.04-.02-.04-.04v-12.53s.02-.04.04-.04h.97s.04.02.04.04v12.53s-.02.04-.04.04Z"/>
    <path class="cls-1" d="M39.12,21.13h-.96s-.04-.02-.04-.04v-1.42s-.05-.05-.07-.02c-.35.49-.8.88-1.34,1.16-.58.3-1.26.45-2.02.45-1.22,0-2.25-.4-3.08-1.21-.83-.81-1.25-1.82-1.25-3.04s.42-2.23,1.25-3.04,1.86-1.21,3.08-1.21c.76,0,1.43.15,2.01.46.54.28.99.67,1.35,1.16.02.03.07.02.07-.02v-1.42s.02-.04.04-.04h.96s.04.02.04.04v8.16s-.02.04-.04.04ZM34.8,13.69c-.98,0-1.79.32-2.43.95-.64.64-.95,1.42-.95,2.36s.32,1.73.96,2.36c.64.63,1.45.95,2.42.95s1.78-.31,2.42-.94c.64-.63.95-1.42.95-2.37s-.32-1.74-.95-2.37c-.64-.63-1.44-.95-2.42-.95Z"/>
    <path class="cls-1" d="M47.88,12.76c1.09,0,1.98.3,2.65.9.67.6,1,1.41,1,2.42v5.01s-.02.04-.04.04h-.97s-.04-.02-.04-.04v-4.71c0-.83-.24-1.49-.73-1.97-.49-.48-1.17-.71-2.05-.71-.82,0-1.51.26-2.07.77-.56.51-.83,1.17-.83,1.97v4.65s-.02.04-.04.04h-.97s-.04-.02-.04-.04v-8.16s.02-.04.04-.04h.96s.04.02.04.04v1.27s.05.05.07.02c.32-.47.74-.83,1.25-1.07.55-.26,1.14-.39,1.77-.39Z"/>
    <path class="cls-1" d="M59.77,12.76c1.32,0,2.38.42,3.17,1.25.02.02.01.04,0,.06l-.63.62s-.04.01-.05,0c-.71-.66-1.55-.99-2.52-.99s-1.75.31-2.39.94c-.64.63-.96,1.42-.96,2.38s.32,1.74.96,2.37c.64.63,1.43.94,2.39.94s1.82-.33,2.54-1c.02-.01.04-.01.05,0l.6.63s.01.04,0,.06c-.8.83-1.86,1.25-3.17,1.25s-2.36-.4-3.19-1.21c-.83-.81-1.25-1.82-1.25-3.04s.42-2.23,1.25-3.04,1.9-1.21,3.19-1.21Z"/>
    <path class="cls-1" d="M70.14,12.76c1.16,0,2.13.39,2.89,1.18.77.79,1.16,1.8,1.17,3.02,0,.09,0,.22-.02.37,0,.02-.02.04-.04.04h-7.19s-.04.02-.04.05c.08.91.43,1.63,1.05,2.17.63.54,1.4.81,2.3.81,1.1,0,2.07-.38,2.9-1.14.02-.02.04-.01.06,0l.51.62s.01.04,0,.06c-.95.89-2.12,1.33-3.53,1.33-1.28,0-2.32-.39-3.14-1.18s-1.22-1.81-1.22-3.07.41-2.26,1.23-3.06c.82-.8,1.84-1.2,3.07-1.2ZM70.12,13.64c-.87,0-1.59.27-2.17.8-.57.52-.91,1.2-1.01,2.02,0,.02.02.05.04.05h6.11s.04-.02.04-.05c-.08-.83-.4-1.51-.95-2.03-.56-.53-1.25-.8-2.06-.8Z"/>
  </g>
  <path class="cls-1" d="M94,8V.06s-.03-.06-.06-.06h-.92s-.06.03-.06.06v7.94s-.02.05-.05.06c-4.73.3-8.41,4.19-8.41,8.95s3.68,8.66,8.41,8.95c.03,0,.05.03.05.06v7.94s.03.06.06.06h.92s.06-.03.06-.06v-7.94s.02-.05.05-.06c4.73-.3,8.41-4.19,8.41-8.95s-3.68-8.66-8.41-8.95c-.03,0-.05-.03-.05-.06ZM94,9.15s.03-.06.06-.06c4.15.3,7.37,3.73,7.37,7.92s-3.22,7.62-7.37,7.92c-.03,0-.06-.02-.06-.06v-15.72ZM85.53,17.01c0-4.18,3.22-7.62,7.37-7.92.03,0,.06.02.06.06v15.72s-.03.06-.06.06c-4.15-.3-7.37-3.73-7.37-7.92Z"/>
  <g>
    <path class="cls-1" d="M121.53,21.13h-.96s-.04-.02-.04-.04v-1.41s-.05-.06-.07-.02c-.35.49-.8.88-1.34,1.16-.58.3-1.26.45-2.02.45-1.22,0-2.25-.4-3.08-1.21-.83-.81-1.25-1.82-1.25-3.04s.42-2.23,1.25-3.04c.83-.81,1.86-1.21,3.08-1.21.76,0,1.43.15,2.01.46.54.28.99.67,1.35,1.16.02.03.07.02.07-.02v-1.42s.02-.04.04-.04h.96s.04.02.04.04v8.16s-.02.04-.04.04ZM117.21,13.69c-.98,0-1.79.32-2.43.95-.64.64-.95,1.42-.95,2.36s.32,1.73.96,2.36,1.45.95,2.42.95,1.78-.31,2.42-.94c.64-.63.95-1.42.95-2.37s-.32-1.74-.95-2.37-1.44-.95-2.42-.95Z"/>
    <path class="cls-1" d="M126.2,9.41c.14-.14.32-.21.53-.21s.39.07.54.21c.14.14.22.31.22.52s-.07.37-.22.51-.32.2-.54.2-.39-.07-.53-.2-.21-.3-.21-.51.07-.38.21-.52ZM127.22,21.13h-.97s-.04-.02-.04-.04v-8.16s.02-.04.04-.04h.97s.04.02.04.04v8.16s-.02.04-.04.04Z"/>
    <path class="cls-1" d="M135.51,12.76c.76,0,1.42.15,2,.46.53.29.97.68,1.31,1.17.02.03.07.02.07-.02v-1.44s.02-.04.04-.04h.97s.04.02.04.04v7.64c0,1.32-.43,2.34-1.28,3.07-.85.73-1.95,1.09-3.27,1.09-.71,0-1.39-.11-2.04-.32-.63-.21-1.16-.49-1.58-.85-.02-.01-.02-.04,0-.06l.49-.66s.04-.02.06,0c.88.66,1.91.98,3.08.98,1.03,0,1.87-.28,2.52-.83.65-.55.98-1.35.98-2.38v-1.04s-.05-.06-.07-.02c-.34.49-.78.88-1.31,1.16-.57.31-1.24.46-2,.46-1.23,0-2.25-.4-3.07-1.19-.82-.79-1.23-1.8-1.23-3.03s.41-2.23,1.23-3.02c.82-.79,1.85-1.19,3.07-1.19ZM138.03,14.63c-.63-.62-1.44-.93-2.41-.93s-1.77.31-2.4.94c-.63.63-.94,1.4-.94,2.33s.31,1.71.94,2.33c.63.63,1.43.94,2.41.94s1.77-.31,2.41-.93c.63-.62.95-1.4.95-2.34s-.32-1.71-.95-2.33Z"/>
    <path class="cls-1" d="M148.19,12.76c1.16,0,2.13.39,2.89,1.18.77.79,1.16,1.8,1.17,3.02,0,.09,0,.22-.02.37,0,.02-.02.04-.04.04h-7.19s-.04.02-.04.04c.08.91.43,1.64,1.05,2.17.63.54,1.4.81,2.3.81,1.11,0,2.07-.38,2.9-1.15.02-.02.04-.01.06,0l.51.62s.01.04,0,.06c-.95.89-2.12,1.33-3.53,1.33-1.28,0-2.32-.39-3.14-1.18-.81-.79-1.22-1.81-1.22-3.07s.41-2.26,1.23-3.06c.82-.8,1.84-1.2,3.07-1.2ZM148.17,13.64c-.87,0-1.59.27-2.17.8s-.91,1.2-1.01,2.03c0,.02.02.05.04.05h6.11s.04-.02.04-.04c-.08-.83-.4-1.51-.95-2.03-.56-.53-1.25-.8-2.06-.8Z"/>
    <path class="cls-1" d="M160.35,12.76c1.09,0,1.98.3,2.65.9.67.6,1,1.41,1,2.42v5.01s-.02.04-.04.04h-.97s-.04-.02-.04-.04v-4.71c0-.83-.24-1.49-.73-1.97-.49-.48-1.17-.71-2.05-.71-.82,0-1.51.26-2.07.77s-.83,1.17-.83,1.97v4.65s-.02.04-.04.04h-.97s-.04-.02-.04-.04v-8.16s.02-.04.04-.04h.96s.04.02.04.04v1.27s.05.05.07.02c.32-.47.74-.83,1.25-1.07.55-.26,1.14-.39,1.77-.39Z"/>
    <path class="cls-1" d="M172.29,12.76c1.32,0,2.38.42,3.17,1.25.02.02.01.04,0,.06l-.63.62s-.04.02-.06,0c-.71-.66-1.55-.99-2.52-.99s-1.75.31-2.39.94c-.64.63-.96,1.42-.96,2.38s.32,1.74.96,2.37c.64.63,1.43.94,2.39.94s1.82-.33,2.54-1c.02-.01.04-.01.06,0l.6.63s.02.04,0,.06c-.8.83-1.86,1.25-3.17,1.25s-2.36-.4-3.19-1.21c-.83-.81-1.25-1.82-1.25-3.04s.42-2.23,1.25-3.04c.83-.81,1.9-1.21,3.19-1.21Z"/>
    <path class="cls-1" d="M179.79,24.66h-1.07s-.05-.03-.03-.06l3.27-5.29s0-.03,0-.04l-4.02-6.32s0-.06.03-.06h1.08s.03,0,.03.02l3.45,5.35s.05.02.07,0l3.23-5.35s.02-.02.03-.02h1.06s.05.03.03.06l-7.13,11.69s-.02.02-.03.02Z"/>
  </g>
</svg>